<?xml version="1.0" standalone="no"?>
<!DOCTYPE svg PUBLIC "-//W3C//DTD SVG 20010904//EN"
 "http://www.w3.org/TR/2001/REC-SVG-20010904/DTD/svg10.dtd">
<svg version="1.0" xmlns="http://www.w3.org/2000/svg"
 width="400.000000pt" height="400.000000pt" viewBox="0 0 400.000000 400.000000"
 preserveAspectRatio="xMidYMid meet">
<metadata>
Created by potrace 1.15, written by Peter Selinger 2001-2017
</metadata>
<g transform="translate(0.000000,400.000000) scale(0.100000,-0.100000)"
fill="#000000" stroke="none">
<path d="M1440 3755 l0 -245 -445 0 -445 0 0 -215 0 -215 118 0 c130 0 169
-12 206 -63 21 -28 21 -33 21 -1017 0 -984 0 -989 -21 -1017 -37 -51 -76 -63
-206 -63 l-118 0 0 -215 0 -215 445 0 445 0 0 -245 0 -245 215 0 215 0 0 245
0 245 130 0 130 0 0 -245 0 -245 215 0 215 0 0 258 0 259 81 12 c412 63 704
302 795 650 19 75 18 267 -2 350 -26 109 -88 222 -166 306 -104 111 -214 174
-400 229 -46 14 -76 25 -68 25 9 1 67 26 129 57 101 50 125 67 206 148 76 75
100 106 134 176 22 47 48 112 56 145 20 77 19 244 0 320 -76 293 -345 500
-712 550 l-53 7 0 254 0 254 -215 0 -215 0 0 -245 0 -245 -130 0 -130 0 0 245
0 245 -215 0 -215 0 0 -245z m863 -759 c138 -25 218 -79 266 -179 86 -179 20
-371 -157 -461 -97 -49 -175 -59 -479 -64 l-283 -4 0 368 0 367 288 -7 c172
-4 318 -12 365 -20z m29 -1179 c193 -45 303 -155 327 -327 18 -137 -20 -260
-111 -356 -66 -70 -114 -98 -214 -126 -72 -19 -105 -21 -356 -22 -320 -1 -307
-5 -319 91 -4 32 -8 217 -8 412 l-1 353 308 -5 c225 -4 325 -9 374 -20z"/>
</g>
</svg>
