<?xml version="1.0" standalone="no"?>
<!DOCTYPE svg PUBLIC "-//W3C//DTD SVG 20010904//EN"
 "http://www.w3.org/TR/2001/REC-SVG-20010904/DTD/svg10.dtd">
<svg version="1.0" xmlns="http://www.w3.org/2000/svg"
 width="656.000000pt" height="127.000000pt" viewBox="0 0 656.000000 127.000000"
 preserveAspectRatio="xMidYMid meet">
<metadata>
Created by potrace 1.15, written by Peter Selinger 2001-2017
</metadata>
<g transform="translate(0.000000,127.000000) scale(0.100000,-0.100000)"
fill="#000000" stroke="none">
<path d="M335 1089 l-40 -9 -32 -183 c-18 -100 -49 -276 -69 -392 -21 -116
-41 -211 -46 -213 -4 -2 -8 -16 -8 -32 0 -25 5 -29 58 -44 36 -10 96 -16 155
-16 86 0 105 3 160 29 104 48 172 132 203 251 34 132 3 254 -78 307 -52 35
-161 44 -233 19 -43 -14 -46 -14 -41 2 3 9 15 71 26 137 11 66 23 128 26 138
6 19 -14 21 -81 6z m230 -399 c37 -35 49 -90 35 -168 -17 -100 -48 -150 -122
-197 -21 -13 -48 -17 -109 -17 -45 1 -83 3 -85 5 -2 2 9 82 26 178 16 96 30
177 30 180 0 5 45 27 90 43 34 13 111 -1 135 -24z"/>
<path d="M3732 1087 l-52 -10 2 -420 3 -420 60 -15 c33 -8 107 -15 165 -16 87
0 113 3 151 21 64 30 116 77 147 137 25 47 27 60 27 166 -1 105 -3 120 -27
166 -34 64 -95 118 -154 134 -43 12 -140 9 -176 -5 -17 -7 -18 4 -18 134 l0
141 -37 -1 c-21 -1 -62 -6 -91 -12z m281 -427 c31 -24 53 -112 42 -169 -17
-94 -59 -131 -150 -131 l-45 0 0 154 c0 114 3 156 13 159 6 3 35 6 63 6 37 1
58 -5 77 -19z"/>
<path d="M4408 1087 l-58 -10 0 -346 c0 -354 5 -405 37 -450 25 -35 98 -70
160 -77 58 -7 58 -7 69 84 l6 60 -35 11 c-26 9 -38 21 -46 43 -7 20 -11 151
-11 364 l0 334 -32 -1 c-18 -1 -59 -6 -90 -12z"/>
<path d="M5963 1087 l-53 -10 0 -428 0 -429 90 0 90 0 0 127 0 127 39 -38 c21
-20 65 -78 97 -127 l59 -89 102 0 c57 0 103 2 103 5 0 14 -102 161 -166 241
-41 51 -74 94 -74 98 0 3 35 43 78 88 91 96 152 164 152 169 0 2 -48 3 -107 1
l-108 -3 -35 -42 c-19 -23 -59 -68 -87 -99 l-53 -58 0 240 0 240 -37 -1 c-21
-1 -62 -6 -90 -12z"/>
<path d="M973 1045 c-55 -23 -71 -87 -32 -126 27 -27 75 -20 107 17 54 61 0
140 -75 109z"/>
<path d="M2873 1045 c-38 -16 -55 -45 -51 -88 4 -45 43 -66 87 -47 53 22 78
92 44 122 -28 24 -47 27 -80 13z"/>
<path d="M1255 983 c-16 -3 -33 -8 -37 -11 -9 -9 -108 -577 -108 -622 0 -48
28 -100 69 -127 27 -19 48 -23 106 -23 39 0 92 7 117 16 l47 15 -2 50 c-2 48
-3 49 -27 42 -14 -4 -56 -8 -95 -8 -67 0 -70 1 -84 29 -12 26 -10 48 15 197
l29 169 111 0 112 0 6 31 c14 71 17 69 -102 69 l-109 0 13 68 c7 37 13 77 14
90 0 23 -7 24 -75 15z"/>
<path d="M4805 826 c-33 -6 -60 -15 -60 -21 1 -5 5 -41 9 -78 8 -64 10 -68 30
-62 11 4 62 9 111 12 100 6 128 -6 140 -57 l6 -25 -74 3 c-169 9 -277 -64
-277 -186 0 -69 12 -104 50 -142 68 -68 196 -86 377 -53 l93 16 0 212 c0 247
-8 284 -72 339 -63 54 -187 70 -333 42z m235 -415 l0 -58 -40 -6 c-47 -6 -110
6 -121 25 -5 7 -9 25 -9 40 0 40 33 58 107 58 l63 0 0 -59z"/>
<path d="M5524 822 c-73 -25 -126 -72 -164 -144 -32 -59 -34 -69 -34 -158 0
-78 4 -104 23 -147 27 -61 83 -115 149 -146 57 -25 191 -30 266 -8 l48 14 -6
51 c-13 97 -13 97 -60 88 -65 -11 -151 -8 -179 7 -37 20 -57 69 -57 140 0 76
26 133 69 151 31 12 140 10 172 -4 13 -6 19 5 33 58 9 36 16 70 16 75 0 17
-99 41 -164 41 -34 -1 -84 -9 -112 -18z"/>
<path d="M1761 802 c-65 -25 -145 -102 -180 -175 -50 -103 -60 -245 -22 -315
17 -31 75 -81 113 -96 45 -19 187 -20 238 -2 33 12 35 15 38 66 3 47 1 52 -15
45 -66 -26 -179 -24 -221 3 -52 34 -66 115 -38 220 21 77 53 118 114 149 45
22 61 25 110 20 31 -3 67 -9 79 -12 18 -6 24 0 42 41 12 26 20 48 19 49 -38
28 -209 33 -277 7z"/>
<path d="M2254 794 c-198 -95 -277 -406 -137 -535 48 -46 86 -59 165 -59 157
1 280 107 324 280 37 144 -5 268 -108 321 -57 29 -177 26 -244 -7z m201 -104
c79 -75 33 -301 -75 -364 -46 -27 -130 -28 -160 -1 -35 32 -50 70 -50 127 0
87 38 182 90 226 55 47 151 53 195 12z"/>
<path d="M3148 806 c-32 -7 -59 -14 -61 -17 -2 -2 -11 -47 -20 -99 -65 -367
-77 -438 -77 -457 0 -21 5 -23 54 -23 60 0 59 0 71 75 4 22 13 74 20 115 7 41
21 118 30 170 9 52 18 105 21 117 3 18 13 22 68 28 73 8 130 -6 146 -35 20
-38 2 -221 -46 -443 l-6 -27 61 0 c34 0 61 2 61 4 0 2 14 79 31 172 40 214 43
305 11 356 -36 59 -89 78 -208 77 -54 0 -125 -6 -156 -13z"/>
<path d="M905 798 c-2 -7 -9 -40 -14 -73 -5 -33 -16 -98 -25 -145 -8 -47 -24
-139 -36 -205 -12 -66 -24 -130 -27 -142 -5 -22 -2 -23 56 -23 55 0 61 2 65
23 3 12 12 63 20 112 53 301 76 436 76 450 0 19 -108 22 -115 3z"/>
<path d="M2800 798 c0 -7 -7 -49 -15 -93 -7 -44 -23 -134 -35 -200 -12 -66
-28 -156 -35 -200 -8 -44 -15 -83 -15 -87 0 -5 27 -8 60 -8 33 0 60 4 60 10 0
5 23 137 50 292 28 155 50 286 50 290 0 4 -27 8 -60 8 -41 0 -60 -4 -60 -12z"/>
</g>
</svg>
