<?xml version="1.0" standalone="no"?>
<!DOCTYPE svg PUBLIC "-//W3C//DTD SVG 20010904//EN"
 "http://www.w3.org/TR/2001/REC-SVG-20010904/DTD/svg10.dtd">
<svg version="1.0" xmlns="http://www.w3.org/2000/svg"
 width="188.000000pt" height="284.000000pt" viewBox="0 0 188.000000 284.000000"
 preserveAspectRatio="xMidYMid meet">
<metadata>
Created by potrace 1.15, written by Peter Selinger 2001-2017
</metadata>
<g transform="translate(0.000000,284.000000) scale(0.100000,-0.100000)"
fill="#000000" stroke="none">
<path d="M580 2675 l0 -125 -265 0 -266 0 3 -132 3 -133 108 0 107 0 0 -862 0
-863 -110 0 -110 0 0 -125 0 -125 265 0 265 0 0 -130 0 -130 120 0 120 0 0
130 0 130 100 0 100 0 0 -130 0 -130 123 0 124 0 1 137 1 137 76 22 c107 32
167 68 259 155 141 133 215 313 204 499 -9 150 -110 302 -275 411 l-58 39 32
6 c41 8 135 84 193 156 143 178 124 465 -45 680 -55 71 -194 168 -289 204 -39
14 -78 29 -86 33 -12 6 -14 32 -11 139 l3 132 -126 0 -126 0 0 -125 0 -125
-100 0 -100 0 0 125 0 125 -120 0 -120 0 0 -125z m643 -413 c188 -84 291 -318
213 -487 -13 -30 -37 -71 -52 -90 -27 -36 -39 -44 -134 -92 l-55 -28 -307 -3
-308 -3 0 363 0 363 301 -2 c268 -3 305 -5 342 -21z m-12 -976 c87 -16 151
-62 206 -145 54 -82 69 -148 53 -237 -17 -101 -50 -165 -123 -237 -104 -104
-116 -107 -472 -107 l-295 0 0 370 0 370 283 0 c187 -1 304 -5 348 -14z"/>
</g>
</svg>
